<svg width="34" height="21" viewBox="0 0 34 21" fill="none" xmlns="http://www.w3.org/2000/svg">
<path d="M33.846 10.1539C33.846 15.7412 29.3332 20.3077 23.6921 20.3077C18.1048 20.3077 13.5383 15.7412 13.5383 10.1539C13.5383 4.56655 18.0511 0 23.6384 0C29.3332 0 33.846 4.56655 33.846 10.1539Z" fill="#FFB600"/>
<path d="M23.6921 0C29.2794 0 33.846 4.56655 33.846 10.1539C33.846 15.7412 29.3332 20.3077 23.6921 20.3077C18.1048 20.3077 13.5383 15.7412 13.5383 10.1539" fill="#F7981D"/>
<path d="M23.692 0C29.2793 0 33.8458 4.56655 33.8458 10.1539C33.8458 15.7412 29.333 20.3077 23.692 20.3077" fill="#FF8500"/>
<path d="M10.0464 0C4.51282 0.0537241 0 4.56655 0 10.1539C0 15.7412 4.51282 20.3077 10.1539 20.3077C12.7863 20.3077 15.1502 19.287 16.9768 17.6752C17.3529 17.3529 17.6752 16.9768 17.9976 16.6007H15.9023C15.6337 16.2784 15.3651 15.9023 15.1502 15.58H18.7497C18.9646 15.2576 19.1795 14.8816 19.3407 14.5055H14.5592C14.3981 14.1832 14.2369 13.8071 14.1294 13.431H19.7167C20.0391 12.4103 20.254 11.3358 20.254 10.2076C20.254 9.45544 20.1465 8.75703 20.0391 8.05862H13.8071C13.8608 7.68255 13.9683 7.3602 14.0757 6.98413H19.663C19.5556 6.60807 19.3944 6.232 19.2332 5.90965H14.5055C14.6667 5.53358 14.8816 5.21124 15.0965 4.83517H18.696C18.4811 4.4591 18.2125 4.08303 17.8901 3.76069H15.9023C16.2247 3.38462 16.547 3.06227 16.9231 2.73993C15.1502 1.07448 12.7326 0.107448 10.1001 0.107448C10.1001 -1.04072e-07 10.1001 0 10.0464 0Z" fill="#FF5050"/>
<path d="M0 10.1538C0 15.7411 4.51282 20.3077 10.1539 20.3077C12.7863 20.3077 15.1502 19.2869 16.9768 17.6752C17.3529 17.3529 17.6752 16.9768 17.9976 16.6007H15.9023C15.6337 16.2784 15.3651 15.9023 15.1502 15.58H18.7497C18.9646 15.2576 19.1795 14.8815 19.3407 14.5055H14.5592C14.3981 14.1831 14.2369 13.8071 14.1294 13.431H19.7167C20.0391 12.4102 20.254 11.3358 20.254 10.2076C20.254 9.45542 20.1465 8.757 20.0391 8.05859H13.8071C13.8608 7.68252 13.9683 7.36018 14.0757 6.98411H19.663C19.5556 6.60804 19.3944 6.23197 19.2332 5.90963H14.5055C14.6667 5.53356 14.8816 5.21121 15.0965 4.83514H18.696C18.4811 4.45907 18.2125 4.08301 17.8901 3.76066H15.9023C16.2247 3.38459 16.547 3.06225 16.9231 2.7399C15.1502 1.07446 12.7326 0.107422 10.1001 0.107422H10.0464" fill="#E52836"/>
<path d="M10.1543 20.3077C12.7868 20.3077 15.1507 19.2869 16.9773 17.6752C17.3534 17.3529 17.6757 16.9768 17.998 16.6007H15.9028C15.6342 16.2784 15.3656 15.9023 15.1507 15.58H18.7502C18.9651 15.2576 19.18 14.8815 19.3411 14.5055H14.5597C14.3985 14.1831 14.2374 13.8071 14.1299 13.431H19.7172C20.0396 12.4102 20.2545 11.3358 20.2545 10.2076C20.2545 9.45542 20.147 8.757 20.0396 8.05859H13.8076C13.8613 7.68252 13.9687 7.36018 14.0762 6.98411H19.6635C19.556 6.60804 19.3949 6.23197 19.2337 5.90963H14.506C14.6671 5.53356 14.882 5.21121 15.0969 4.83514H18.6965C18.4816 4.45907 18.2129 4.08301 17.8906 3.76066H15.9028C16.2251 3.38459 16.5475 3.06225 16.9236 2.7399C15.1507 1.07446 12.7331 0.107422 10.1006 0.107422H10.0469" fill="#CB2026"/>
<path d="M13.7523 12.7316L13.9135 11.8183C13.8598 11.8183 13.7523 11.872 13.6449 11.872C13.2688 11.872 13.2151 11.6571 13.2688 11.5497L13.5911 9.66935H14.1821L14.3433 8.6486H13.806L13.9135 8.00391H12.839C12.839 8.00391 12.1943 11.5497 12.1943 11.9795C12.1943 12.6242 12.5704 12.8928 13.0539 12.8928C13.3763 12.8928 13.6449 12.7854 13.7523 12.7316Z" fill="white"/>
<path d="M14.1318 11.0123C14.1318 12.5165 15.1526 12.8926 16.0122 12.8926C16.818 12.8926 17.1404 12.7314 17.1404 12.7314L17.3553 11.7107C17.3553 11.7107 16.7643 11.9793 16.2271 11.9793C15.0451 11.9793 15.26 11.1197 15.26 11.1197H17.4627C17.4627 11.1197 17.6239 10.4213 17.6239 10.1527C17.6239 9.45428 17.2478 8.59469 16.0659 8.59469C14.9377 8.48724 14.1318 9.66917 14.1318 11.0123ZM16.0122 9.45428C16.6031 9.45428 16.4957 10.1527 16.4957 10.2064H15.3138C15.3138 10.1527 15.4212 9.45428 16.0122 9.45428Z" fill="white"/>
<path d="M22.8406 12.7317L23.0554 11.5498C23.0554 11.5498 22.5182 11.8184 22.1421 11.8184C21.39 11.8184 21.0677 11.2275 21.0677 10.5828C21.0677 9.2934 21.7123 8.59499 22.4645 8.59499C23.0017 8.59499 23.4315 8.91733 23.4315 8.91733L23.5927 7.78913C23.5927 7.78913 22.948 7.52051 22.357 7.52051C21.1214 7.52051 19.8857 8.59499 19.8857 10.6365C19.8857 11.9796 20.5304 12.8929 21.8198 12.8929C22.2496 12.8929 22.8406 12.7317 22.8406 12.7317Z" fill="white"/>
<path d="M7.84544 8.4873C7.0933 8.4873 6.55606 8.7022 6.55606 8.7022L6.39489 9.61551C6.39489 9.61551 6.87841 9.40061 7.57682 9.40061C7.95289 9.40061 8.27523 9.45434 8.27523 9.77668C8.27523 9.99158 8.22151 10.0453 8.22151 10.0453C8.22151 10.0453 7.89916 10.0453 7.73799 10.0453C6.82468 10.0453 5.80392 10.4214 5.80392 11.657C5.80392 12.6241 6.44861 12.839 6.82468 12.839C7.57682 12.839 7.89916 12.3554 7.95289 12.3554L7.89916 12.7852H8.8662L9.29599 9.83041C9.29599 8.54103 8.22151 8.4873 7.84544 8.4873ZM8.06034 10.9049C8.06034 11.0661 7.95289 11.9256 7.3082 11.9256C6.98585 11.9256 6.87841 11.657 6.87841 11.4959C6.87841 11.2272 7.03958 10.8512 7.84544 10.8512C8.00661 10.9049 8.06034 10.9049 8.06034 10.9049Z" fill="white"/>
<path d="M10.3167 12.839C10.5853 12.839 11.9284 12.8927 11.9284 11.4421C11.9284 10.099 10.639 10.3677 10.639 9.83042C10.639 9.5618 10.8539 9.45435 11.23 9.45435C11.3912 9.45435 11.9821 9.50808 11.9821 9.50808L12.1433 8.54104C12.1433 8.54104 11.7672 8.43359 11.1226 8.43359C10.3167 8.43359 9.51083 8.75594 9.51083 9.83042C9.51083 11.0661 10.8539 10.9586 10.8539 11.4421C10.8539 11.7645 10.4779 11.8182 10.2092 11.8182C9.72573 11.8182 9.24221 11.657 9.24221 11.657L9.08104 12.6241C9.13476 12.7315 9.40338 12.839 10.3167 12.839Z" fill="white"/>
<path d="M31.7566 7.62793L31.5417 9.07848C31.5417 9.07848 31.1119 8.54124 30.5209 8.54124C29.5539 8.54124 28.6943 9.72317 28.6943 11.12C28.6943 11.9796 29.1241 12.8929 30.0374 12.8929C30.6821 12.8929 31.0582 12.4631 31.0582 12.4631L31.0045 12.8392H32.0789L32.8848 7.68165L31.7566 7.62793ZM31.2731 10.4753C31.2731 11.0663 31.0045 11.8184 30.4135 11.8184C30.0374 11.8184 29.8225 11.4961 29.8225 10.9588C29.8225 10.0992 30.1986 9.562 30.6821 9.562C31.0582 9.562 31.2731 9.83062 31.2731 10.4753Z" fill="white"/>
<path d="M1.99242 12.7854L2.63711 8.91731L2.74456 12.7854H3.4967L4.89352 8.91731L4.30256 12.7854H5.43076L6.29035 7.62793H4.51745L3.44297 10.7977L3.38925 7.62793H1.83125L0.971664 12.7854H1.99242Z" fill="white"/>
<path d="M18.6468 12.7852C18.9691 11.0123 19.0228 9.56176 19.775 9.83038C19.8824 9.13197 20.0436 8.86335 20.151 8.59473C20.151 8.59473 20.0973 8.59473 19.9361 8.59473C19.4526 8.59473 19.0766 9.23942 19.0766 9.23942L19.184 8.64845H18.1632L17.4648 12.8389H18.6468V12.7852Z" fill="white"/>
<path d="M25.3104 8.4873C24.5582 8.4873 24.021 8.7022 24.021 8.7022L23.8598 9.61551C23.8598 9.61551 24.3433 9.40061 25.0417 9.40061C25.4178 9.40061 25.7402 9.45434 25.7402 9.77668C25.7402 9.99158 25.6864 10.0453 25.6864 10.0453C25.6864 10.0453 25.3641 10.0453 25.2029 10.0453C24.2896 10.0453 23.2688 10.4214 23.2688 11.657C23.2688 12.6241 23.9135 12.839 24.2896 12.839C25.0417 12.839 25.3641 12.3554 25.4178 12.3554L25.3641 12.7852H26.3311L26.7609 9.83041C26.8146 8.54103 25.6864 8.4873 25.3104 8.4873ZM25.579 10.9049C25.579 11.0661 25.4715 11.9256 24.8268 11.9256C24.5045 11.9256 24.3971 11.657 24.3971 11.4959C24.3971 11.2272 24.5582 10.8512 25.3641 10.8512C25.5253 10.9049 25.5253 10.9049 25.579 10.9049Z" fill="white"/>
<path d="M27.6701 12.7852C27.9924 11.0123 28.0461 9.56176 28.7983 9.83038C28.9057 9.13197 29.0669 8.86335 29.1743 8.59473C29.1743 8.59473 29.1206 8.59473 28.9595 8.59473C28.4759 8.59473 28.0999 9.23942 28.0999 9.23942L28.2073 8.64845H27.1866L26.4881 12.8389H27.6701V12.7852Z" fill="white"/>
<path d="M12.0889 11.9795C12.0889 12.6242 12.4649 12.8928 12.9484 12.8928C13.3245 12.8928 13.6469 12.7854 13.7543 12.7316L13.9155 11.8183C13.8617 11.8183 13.7543 11.872 13.6469 11.872C13.2708 11.872 13.2171 11.6571 13.2708 11.5497L13.5931 9.66935H14.1841L14.3453 8.6486H13.808L13.9155 8.00391" fill="#DCE5E5"/>
<path d="M14.667 11.0123C14.667 12.5165 15.1505 12.8926 16.0101 12.8926C16.8159 12.8926 17.1383 12.7314 17.1383 12.7314L17.3532 11.7107C17.3532 11.7107 16.7622 11.9793 16.225 11.9793C15.043 11.9793 15.2579 11.1197 15.2579 11.1197H17.4606C17.4606 11.1197 17.6218 10.4213 17.6218 10.1527C17.6218 9.45428 17.2457 8.59469 16.0638 8.59469C14.9356 8.48724 14.667 9.66917 14.667 11.0123ZM16.0101 9.45428C16.601 9.45428 16.7085 10.1527 16.7085 10.2064H15.3117C15.3117 10.1527 15.4191 9.45428 16.0101 9.45428Z" fill="#DCE5E5"/>
<path d="M22.8385 12.7317L23.0534 11.5498C23.0534 11.5498 22.5161 11.8184 22.1401 11.8184C21.3879 11.8184 21.0656 11.2275 21.0656 10.5828C21.0656 9.2934 21.7103 8.59499 22.4624 8.59499C22.9996 8.59499 23.4294 8.91733 23.4294 8.91733L23.5906 7.78913C23.5906 7.78913 22.9459 7.52051 22.355 7.52051C21.1193 7.52051 20.4209 8.59499 20.4209 10.6365C20.4209 11.9796 20.5283 12.8929 21.8177 12.8929C22.2475 12.8929 22.8385 12.7317 22.8385 12.7317Z" fill="#DCE5E5"/>
<path d="M6.39489 9.66921C6.39489 9.66921 6.87841 9.45431 7.57682 9.45431C7.95289 9.45431 8.27523 9.50804 8.27523 9.83038C8.27523 10.0453 8.22151 10.099 8.22151 10.099C8.22151 10.099 7.89916 10.099 7.73799 10.099C6.82468 10.099 5.80392 10.4751 5.80392 11.7107C5.80392 12.6778 6.44861 12.8927 6.82468 12.8927C7.57682 12.8927 7.89916 12.4091 7.95289 12.4091L7.89916 12.8389H8.8662L9.29599 9.8841C9.29599 8.64845 8.22151 8.59473 7.79172 8.59473L6.39489 9.66921ZM8.59758 10.9049C8.59758 11.066 7.95289 11.9256 7.3082 11.9256C6.98585 11.9256 6.87841 11.657 6.87841 11.4958C6.87841 11.2272 7.03958 10.8511 7.84544 10.8511C8.00661 10.9049 8.59758 10.9049 8.59758 10.9049Z" fill="#DCE5E5"/>
<path d="M9.13562 12.7315C9.13562 12.7315 9.45796 12.839 10.3713 12.839C10.6399 12.839 11.983 12.8927 11.983 11.4421C11.983 10.099 10.6936 10.3677 10.6936 9.83042C10.6936 9.5618 10.9085 9.45435 11.2846 9.45435C11.4458 9.45435 12.0367 9.50808 12.0367 9.50808L12.1979 8.54104C12.1979 8.54104 11.8218 8.43359 11.1771 8.43359C10.3713 8.43359 10.1027 8.75594 10.1027 9.83042C10.1027 11.0661 10.9085 10.9586 10.9085 11.4421C10.9085 11.7645 10.5324 11.8182 10.2638 11.8182" fill="#DCE5E5"/>
<path d="M31.5389 9.07847C31.5389 9.07847 31.1091 8.54123 30.5182 8.54123C29.5511 8.54123 29.2288 9.72316 29.2288 11.12C29.2288 11.9796 29.1213 12.8929 30.0346 12.8929C30.6793 12.8929 31.0554 12.4631 31.0554 12.4631L31.0017 12.8392H32.0762L32.882 7.68164L31.5389 9.07847ZM31.4852 10.4753C31.4852 11.0663 31.0017 11.8184 30.4107 11.8184C30.0346 11.8184 29.8197 11.4961 29.8197 10.9588C29.8197 10.0992 30.1958 9.56198 30.6793 9.56198C31.0554 9.56198 31.4852 9.8306 31.4852 10.4753Z" fill="#DCE5E5"/>
<path d="M1.99242 12.7854L2.63711 8.91731L2.74456 12.7854H3.4967L4.89352 8.91731L4.30256 12.7854H5.43076L6.29035 7.62793H4.94725L3.44297 10.7977L3.38925 7.62793H2.79828L0.971664 12.7854H1.99242Z" fill="#DCE5E5"/>
<path d="M17.5177 12.7852H18.6459C18.9683 11.0123 19.022 9.56176 19.7741 9.83038C19.8816 9.13197 20.0427 8.86335 20.1502 8.59473C20.1502 8.59473 20.0965 8.59473 19.9353 8.59473C19.4518 8.59473 19.0757 9.23942 19.0757 9.23942L19.1832 8.64845" fill="#DCE5E5"/>
<path d="M23.8598 9.66921C23.8598 9.66921 24.3433 9.45431 25.0417 9.45431C25.4178 9.45431 25.7402 9.50804 25.7402 9.83038C25.7402 10.0453 25.6864 10.099 25.6864 10.099C25.6864 10.099 25.3641 10.099 25.2029 10.099C24.2896 10.099 23.2688 10.4751 23.2688 11.7107C23.2688 12.6778 23.9135 12.8927 24.2896 12.8927C25.0417 12.8927 25.3641 12.4091 25.4178 12.4091L25.3641 12.8389H26.3311L26.7609 9.8841C26.7609 8.64845 25.6864 8.59473 25.2566 8.59473L23.8598 9.66921ZM26.0625 10.9049C26.0625 11.066 25.4178 11.9256 24.7731 11.9256C24.4508 11.9256 24.3433 11.657 24.3433 11.4958C24.3433 11.2272 24.5045 10.8511 25.3104 10.8511C25.5253 10.9049 26.0625 10.9049 26.0625 10.9049Z" fill="#DCE5E5"/>
<path d="M26.5459 12.7852H27.6741C27.9964 11.0123 28.0502 9.56176 28.8023 9.83038C28.9097 9.13197 29.0709 8.86335 29.1784 8.59473C29.1784 8.59473 29.1246 8.59473 28.9635 8.59473C28.48 8.59473 28.1039 9.23942 28.1039 9.23942L28.2113 8.64845" fill="#DCE5E5"/>
</svg>
